HIERARCHY
ROOT newVegas:Hips
{
	OFFSET 0.000000 96.479958 0.000000
	CHANNELS 6 Xposition Yposition Zposition Xrotation Yrotation Zrotation
	JOINT newVegas:Pelvis
	{
		OFFSET 0.000000 0.000000 0.000000
		CHANNELS 3 Xrotation Yrotation Zrotation
		JOINT newVegas:LeftUpLeg
		{
			OFFSET 18.735201 -5.666702 -4.541200
			CHANNELS 3 Xrotation Yrotation Zrotation
			JOINT newVegas:LeftLeg
			{
				OFFSET -0.021200 -31.938179 0.493100
				CHANNELS 3 Xrotation Yrotation Zrotation
				JOINT newVegas:LeftFoot
				{
					OFFSET 0.021200 -31.938179 -4.336299
					CHANNELS 3 Xrotation Yrotation Zrotation
					JOINT newVegas:LeftToeBase
					{
						OFFSET 0.943001 -26.722000 15.023500
						CHANNELS 3 Xrotation Yrotation Zrotation
						End Site
						{
							OFFSET 0.000000 30.670183 0.000000
						}
					}
				}
				JOINT newVegas:Left_PantLeg
				{
					OFFSET 0.663870 -9.044666 -1.108900
					CHANNELS 3 Xrotation Yrotation Zrotation
					End Site
					{
						OFFSET 1.415995 20.635357 0.000000
					}
				}
			}
		}
		JOINT newVegas:RightUpLeg
		{
			OFFSET -18.735201 -5.666702 -4.541200
			CHANNELS 3 Xrotation Yrotation Zrotation
			JOINT newVegas:RightLeg
			{
				OFFSET 0.018946 -31.938133 0.493100
				CHANNELS 3 Xrotation Yrotation Zrotation
				JOINT newVegas:RightFoot
				{
					OFFSET -0.018946 -31.938126 -4.336299
					CHANNELS 3 Xrotation Yrotation Zrotation
					JOINT newVegas:RightToeBase
					{
						OFFSET -0.943001 -26.722004 15.023500
						CHANNELS 3 Xrotation Yrotation Zrotation
						End Site
						{
							OFFSET 0.000000 30.670187 0.000000
						}
					}
				}
				JOINT newVegas:Right_PantLeg
				{
					OFFSET -0.661674 -9.044716 -1.108900
					CHANNELS 3 Xrotation Yrotation Zrotation
					End Site
					{
						OFFSET -1.415958 20.635269 0.000000
					}
				}
			}
		}
	}
	JOINT newVegas:Spine
	{
		OFFSET 0.000000 10.199997 -0.299500
		CHANNELS 3 Xrotation Yrotation Zrotation
		JOINT newVegas:Spine1
		{
			OFFSET 0.000000 11.900002 -1.516600
			CHANNELS 3 Xrotation Yrotation Zrotation
			JOINT newVegas:Spine2
			{
				OFFSET 0.000000 13.600006 -2.842500
				CHANNELS 3 Xrotation Yrotation Zrotation
				JOINT newVegas:Neck
				{
					OFFSET 0.000000 9.624100 -2.890100
					CHANNELS 3 Xrotation Yrotation Zrotation
					JOINT newVegas:Head
					{
						OFFSET 0.000000 14.068802 -1.351900
						CHANNELS 3 Xrotation Yrotation Zrotation
						JOINT newVegas:Hair_Back
						{
							OFFSET 0.000000 3.231903 -17.524799
							CHANNELS 3 Xrotation Yrotation Zrotation
							End Site
							{
								OFFSET 0.000000 19.849884 0.000000
							}
						}
						JOINT newVegas:Hair_Front
						{
							OFFSET 0.000000 31.260406 4.573800
							CHANNELS 3 Xrotation Yrotation Zrotation
							JOINT newVegas:Hair_Front1
							{
								OFFSET 0.000000 2.284103 11.993300
								CHANNELS 3 Xrotation Yrotation Zrotation
								JOINT newVegas:Hair_Front2
								{
									OFFSET 0.000000 2.284103 11.993300
									CHANNELS 3 Xrotation Yrotation Zrotation
									End Site
									{
										OFFSET 0.000000 12.208862 0.000000
									}
								}
							}
						}
						JOINT newVegas:Jowel
						{
							OFFSET 0.000000 -7.458206 6.864100
							CHANNELS 3 Xrotation Yrotation Zrotation
							End Site
							{
								OFFSET 0.000000 19.849884 0.000000
							}
						}
					}
				}
				JOINT newVegas:LeftShoulder
				{
					OFFSET 15.263000 10.923401 -0.547700
					CHANNELS 3 Xrotation Yrotation Zrotation
					JOINT newVegas:LeftArm
					{
						OFFSET 25.438599 -2.830597 -13.032500
						CHANNELS 3 Xrotation Yrotation Zrotation
						JOINT newVegas:LeftForeArm
						{
							OFFSET 29.960503 0.000000 0.000000
							CHANNELS 3 Xrotation Yrotation Zrotation
							JOINT newVegas:LeftHand
							{
								OFFSET 27.849251 0.000000 0.000000
								CHANNELS 3 Xrotation Yrotation Zrotation
								JOINT newVegas:LeftHandThumb1
								{
									OFFSET 4.487587 -3.305161 6.305391
									CHANNELS 3 Xrotation Yrotation Zrotation
									JOINT newVegas:LeftHandThumb2
									{
										OFFSET 5.480453 -3.164139 3.164143
										CHANNELS 3 Xrotation Yrotation Zrotation
										JOINT newVegas:LeftHandThumb3
										{
											OFFSET 5.159721 -2.978973 2.978967
											CHANNELS 3 Xrotation Yrotation Zrotation
											End Site
											{
												OFFSET 2.494507 5.926697 1.738678
											}
										}
									}
								}
								JOINT newVegas:LeftHandIndex1
								{
									OFFSET 18.578728 -0.527832 5.208049
									CHANNELS 3 Xrotation Yrotation Zrotation
									JOINT newVegas:LeftHandIndex2
									{
										OFFSET 3.192009 0.000000 0.000000
										CHANNELS 3 Xrotation Yrotation Zrotation
										JOINT newVegas:LeftHandIndex3
										{
											OFFSET 3.835129 0.000000 0.000000
											CHANNELS 3 Xrotation Yrotation Zrotation
											End Site
											{
												OFFSET -0.034599 3.816971 0.371180
											}
										}
									}
								}
								JOINT newVegas:LeftHandMiddle1
								{
									OFFSET 18.476105 0.000000 0.000000
									CHANNELS 3 Xrotation Yrotation Zrotation
									JOINT newVegas:LeftHandMiddle2
									{
										OFFSET 3.324875 0.000000 0.000000
										CHANNELS 3 Xrotation Yrotation Zrotation
										JOINT newVegas:LeftHandMiddle3
										{
											OFFSET 4.596550 0.000000 0.000000
											CHANNELS 3 Xrotation Yrotation Zrotation
											End Site
											{
												OFFSET 0.057701 4.578827 0.399218
											}
										}
									}
								}
								JOINT newVegas:LeftHandRing1
								{
									OFFSET 17.732719 0.121887 -4.201567
									CHANNELS 3 Xrotation Yrotation Zrotation
									JOINT newVegas:LeftHandRing2
									{
										OFFSET 2.733170 0.000000 0.000000
										CHANNELS 3 Xrotation Yrotation Zrotation
										JOINT newVegas:LeftHandRing3
										{
											OFFSET 3.178268 0.000000 0.000000
											CHANNELS 3 Xrotation Yrotation Zrotation
											End Site
											{
												OFFSET 0.119102 3.170624 0.185394
											}
										}
									}
								}
								JOINT newVegas:LeftHandPinky1
								{
									OFFSET 15.989624 -0.606689 -7.535461
									CHANNELS 3 Xrotation Yrotation Zrotation
									JOINT newVegas:LeftHandPinky2
									{
										OFFSET 2.538986 0.000000 0.000000
										CHANNELS 3 Xrotation Yrotation Zrotation
										JOINT newVegas:LeftHandPinky3
										{
											OFFSET 2.593102 0.000000 0.000000
											CHANNELS 3 Xrotation Yrotation Zrotation
											End Site
											{
												OFFSET -0.150902 2.584198 0.152708
											}
										}
									}
								}
							}
							JOINT newVegas:Left_Sleeve
							{
								OFFSET 0.267448 -0.649796 0.577675
								CHANNELS 3 Xrotation Yrotation Zrotation
								End Site
								{
									OFFSET 0.000000 15.991241 0.000000
								}
							}
							JOINT newVegas:Left_CapeC
							{
								OFFSET 15.715958 -8.608795 -6.935905
								CHANNELS 3 Xrotation Yrotation Zrotation
								JOINT newVegas:Left_CapeC1
								{
									OFFSET 0.000000 -8.688499 0.000000
									CHANNELS 3 Xrotation Yrotation Zrotation
									End Site
									{
										OFFSET 0.000000 8.688499 0.000000
									}
								}
							}
						}
						JOINT newVegas:Left_CapeB
						{
							OFFSET 26.118385 -8.608795 -7.079235
							CHANNELS 3 Xrotation Yrotation Zrotation
							JOINT newVegas:Left_CapeB1
							{
								OFFSET 0.000000 -8.688499 0.000000
								CHANNELS 3 Xrotation Yrotation Zrotation
								End Site
								{
									OFFSET 0.000000 8.688499 0.000000
								}
							}
						}
						JOINT newVegas:Left_CapeA
						{
							OFFSET 5.115639 -8.608795 -10.395809
							CHANNELS 3 Xrotation Yrotation Zrotation
							JOINT newVegas:Left_CapeA1
							{
								OFFSET 0.000000 -8.688499 0.000000
								CHANNELS 3 Xrotation Yrotation Zrotation
								End Site
								{
									OFFSET 0.000000 8.688499 0.000000
								}
							}
						}
					}
				}
				JOINT newVegas:RightShoulder
				{
					OFFSET -15.263000 10.923401 -0.547700
					CHANNELS 3 Xrotation Yrotation Zrotation
					JOINT newVegas:RightArm
					{
						OFFSET -25.438599 -2.830597 -13.032500
						CHANNELS 3 Xrotation Yrotation Zrotation
						JOINT newVegas:RightForeArm
						{
							OFFSET -29.960503 0.000000 0.000000
							CHANNELS 3 Xrotation Yrotation Zrotation
							JOINT newVegas:RightHand
							{
								OFFSET -27.849251 0.000000 0.000000
								CHANNELS 3 Xrotation Yrotation Zrotation
								JOINT newVegas:RightHandThumb1
								{
									OFFSET -4.487587 -3.305161 6.305391
									CHANNELS 3 Xrotation Yrotation Zrotation
									JOINT newVegas:RightHandThumb2
									{
										OFFSET -5.480453 -3.164139 3.164143
										CHANNELS 3 Xrotation Yrotation Zrotation
										JOINT newVegas:RightHandThumb3
										{
											OFFSET -5.159721 -2.978973 2.978967
											CHANNELS 3 Xrotation Yrotation Zrotation
											End Site
											{
												OFFSET -2.494507 5.926697 1.738678
											}
										}
									}
								}
								JOINT newVegas:RightHandIndex1
								{
									OFFSET -18.578728 -0.527832 5.208049
									CHANNELS 3 Xrotation Yrotation Zrotation
									JOINT newVegas:RightHandIndex2
									{
										OFFSET -3.192009 0.000000 0.000000
										CHANNELS 3 Xrotation Yrotation Zrotation
										JOINT newVegas:RightHandIndex3
										{
											OFFSET -3.835129 0.000000 0.000000
											CHANNELS 3 Xrotation Yrotation Zrotation
											End Site
											{
												OFFSET 0.034599 3.816971 0.371180
											}
										}
									}
								}
								JOINT newVegas:RightHandMiddle1
								{
									OFFSET -18.476105 0.000000 0.000000
									CHANNELS 3 Xrotation Yrotation Zrotation
									JOINT newVegas:RightHandMiddle2
									{
										OFFSET -3.324875 0.000000 0.000000
										CHANNELS 3 Xrotation Yrotation Zrotation
										JOINT newVegas:RightHandMiddle3
										{
											OFFSET -4.596550 0.000000 0.000000
											CHANNELS 3 Xrotation Yrotation Zrotation
											End Site
											{
												OFFSET -0.057701 4.578827 0.399218
											}
										}
									}
								}
								JOINT newVegas:RightHandRing1
								{
									OFFSET -17.732719 0.121887 -4.201567
									CHANNELS 3 Xrotation Yrotation Zrotation
									JOINT newVegas:RightHandRing2
									{
										OFFSET -2.733170 0.000000 0.000000
										CHANNELS 3 Xrotation Yrotation Zrotation
										JOINT newVegas:RightHandRing3
										{
											OFFSET -3.178268 0.000000 0.000000
											CHANNELS 3 Xrotation Yrotation Zrotation
											End Site
											{
												OFFSET -0.119102 3.170624 0.185394
											}
										}
									}
								}
								JOINT newVegas:RightHandPinky1
								{
									OFFSET -15.989624 -0.606689 -7.535461
									CHANNELS 3 Xrotation Yrotation Zrotation
									JOINT newVegas:RightHandPinky2
									{
										OFFSET -2.538986 0.000000 0.000000
										CHANNELS 3 Xrotation Yrotation Zrotation
										JOINT newVegas:RightHandPinky3
										{
											OFFSET -2.593102 0.000000 0.000000
											CHANNELS 3 Xrotation Yrotation Zrotation
											End Site
											{
												OFFSET 0.150902 2.584198 0.152708
											}
										}
									}
								}
							}
							JOINT newVegas:Right_CapeC
							{
								OFFSET -15.715958 -8.608795 -6.935905
								CHANNELS 3 Xrotation Yrotation Zrotation
								JOINT newVegas:Right_CapeC1
								{
									OFFSET 0.000000 -8.688499 0.000000
									CHANNELS 3 Xrotation Yrotation Zrotation
									End Site
									{
										OFFSET 0.000000 8.688499 0.000000
									}
								}
							}
							JOINT newVegas:Right_Sleeve
							{
								OFFSET -0.267448 -0.649994 0.577675
								CHANNELS 3 Xrotation Yrotation Zrotation
								End Site
								{
									OFFSET 0.000000 15.991302 0.000000
								}
							}
						}
						JOINT newVegas:Right_CapeA
						{
							OFFSET -5.115540 -8.608795 -10.395824
							CHANNELS 3 Xrotation Yrotation Zrotation
							JOINT newVegas:Right_CapeA1
							{
								OFFSET 0.000000 -8.688499 0.000000
								CHANNELS 3 Xrotation Yrotation Zrotation
								End Site
								{
									OFFSET 0.000000 8.688499 0.000000
								}
							}
						}
						JOINT newVegas:Right_CapeB
						{
							OFFSET -26.118187 -8.608795 -7.079266
							CHANNELS 3 Xrotation Yrotation Zrotation
							JOINT newVegas:Right_CapeB1
							{
								OFFSET 0.000000 -8.688499 0.000000
								CHANNELS 3 Xrotation Yrotation Zrotation
								End Site
								{
									OFFSET 0.000000 8.688499 0.000000
								}
							}
						}
					}
				}
				JOINT newVegas:Left_Collar
				{
					OFFSET 18.625099 8.655502 8.828100
					CHANNELS 3 Xrotation Yrotation Zrotation
					JOINT newVegas:Left_Collar1
					{
						OFFSET 14.783401 10.540405 -1.259500
						CHANNELS 3 Xrotation Yrotation Zrotation
						End Site
						{
							OFFSET 0.000000 18.199875 0.000000
						}
					}
				}
				JOINT newVegas:Collar_Back
				{
					OFFSET 0.000000 15.630707 -20.132601
					CHANNELS 3 Xrotation Yrotation Zrotation
					End Site
					{
						OFFSET 0.000000 22.523010 0.000000
					}
				}
				JOINT newVegas:Left_Peck
				{
					OFFSET 17.239599 -5.132599 25.482599
					CHANNELS 3 Xrotation Yrotation Zrotation
					End Site
					{
						OFFSET 0.000000 22.523010 0.000000
					}
				}
				JOINT newVegas:Right_Peck
				{
					OFFSET -17.239599 -5.132202 25.482599
					CHANNELS 3 Xrotation Yrotation Zrotation
					End Site
					{
						OFFSET 0.000000 22.523010 0.000000
					}
				}
				JOINT newVegas:Right_Collar
				{
					OFFSET -18.625099 8.655792 8.828100
					CHANNELS 3 Xrotation Yrotation Zrotation
					JOINT newVegas:Right_Collar1
					{
						OFFSET -14.783401 10.539993 -1.259500
						CHANNELS 3 Xrotation Yrotation Zrotation
						End Site
						{
							OFFSET 0.000000 18.199631 0.000000
						}
					}
				}
			}
		}
		JOINT newVegas:Belly
		{
			OFFSET 0.000000 -6.540398 9.014299
			CHANNELS 3 Xrotation Yrotation Zrotation
			End Site
			{
				OFFSET 0.000000 11.566666 0.000000
			}
		}
	}
	JOINT newVegas:ElvisFacialAnim_Joint
	{
		OFFSET 1.000000 -95.330101 -8.825800
		CHANNELS 3 Xrotation Yrotation Zrotation
		End Site
		{
			OFFSET 0.000000 35.315800 0.000000
		}
	}
}
MOTION
Frames: 4
Frame Time: 0.016667
15.638514 81.475983 66.231712 -196.520552 47.356072 185.854857 -0.000000 -0.000001 0.000000 -59.933346 -10.488724 18.181484 28.385196 -43.054565 3.661455 6.628019 -1.598564 -26.120966 -0.000000 -0.000000 -0.000000 0.000001 0.000000 -0.000000 -24.482960 -26.125656 -26.830499 47.600650 -6.448060 6.932251 -23.520245 -7.742489 23.057884 -0.000000 -0.000001 0.000000 0.000001 -0.000001 -0.000003 12.737063 3.661394 -3.211067 11.924115 11.118073 -15.175191 1.101638 14.665741 -10.905802 2.251812 1.405448 1.873075 2.251797 1.405444 1.873077 0.000001 0.000000 -0.000000 2.251821 1.405449 1.873072 2.251872 1.405439 1.873075 0.000001 0.000001 -0.000001 0.000001 0.000000 -0.000000 0.441630 12.913608 -8.023904 24.289889 30.045152 -67.066672 -59.876642 -28.113479 -29.309523 -3.278556 20.437914 28.775563 14.303308 -13.828661 17.477163 -1.153279 11.257881 -8.413992 0.000003 -0.000001 0.000000 -1.170656 -7.739188 -1.295046 -0.043938 -0.937989 -21.136811 0.000001 -0.000000 -0.000001 1.351898 3.178794 -22.421059 0.508241 -1.065578 -16.741337 0.000002 -0.000001 -0.000005 1.727815 5.794771 -31.799151 -0.855259 -0.880766 -22.637690 0.000001 0.000001 0.000003 1.357510 4.983816 -40.153152 -1.028401 -0.556649 -20.486633 0.000002 -0.000005 -0.000001 -0.000003 -0.000001 -0.000002 -0.000003 -0.000001 -0.000002 -0.000003 -0.000000 -0.000002 0.000001 -0.000001 -0.000001 0.000001 -0.000002 -0.000001 0.000001 -0.000001 -0.000001 0.000001 0.000000 -0.000000 1.205996 17.292717 2.836854 -64.233367 30.995528 72.958066 51.591134 12.758243 4.090914 2.838913 31.571846 -10.829774 55.149560 18.649541 -29.698291 -0.442583 -14.180521 7.313136 0.000000 -0.000004 -0.000001 5.673390 7.585025 36.844171 1.050480 3.824484 68.900216 0.000001 -0.000001 -0.000000 -0.125687 1.886101 45.000766 -1.169019 3.204643 68.417636 -0.000002 -0.000001 -0.000001 -5.312005 1.216661 58.508821 -0.745210 1.667610 48.011278 -0.000002 0.000001 -0.000002 -7.756838 -9.376466 47.263987 -0.526024 1.541573 45.600525 0.000000 0.000003 0.000002 0.000000 0.000000 -0.000001 0.000000 0.000000 -0.000003 0.000000 0.000000 -0.000003 0.000001 0.000000 -0.000002 0.000001 0.000001 -0.000001 0.000001 0.000000 -0.000002 0.000001 0.000001 -0.000002 0.000002 -0.000000 0.000001 0.000002 -0.000000 0.000001 0.000002 -0.000000 0.000001 0.000002 -0.000000 0.000001 0.000002 -0.000000 0.000001 0.000002 -0.000000 0.000001 0.000002 -0.000000 0.000001 -0.000001 -0.000001 -0.000000 -0.000000 -0.000001 0.000000 
15.495815 81.717163 66.103897 -196.894000 49.597665 186.556877 -0.000000 0.000002 -0.000001 -59.386999 -10.573555 19.146663 30.512255 -41.533591 3.911709 5.285988 -1.146868 -25.232150 -0.000000 0.000000 -0.000000 -0.000000 -0.000000 0.000003 -25.974613 -25.556495 -27.865497 47.214082 -4.382056 7.164099 -22.735398 -7.244270 21.814700 -0.000000 -0.000001 -0.000000 -0.000001 -0.000001 0.000000 12.598753 3.579007 -3.183880 11.663245 11.031805 -15.073990 0.830129 14.573225 -10.818433 2.299856 1.410408 1.899397 2.299863 1.410412 1.899396 -0.000001 0.000000 -0.000000 2.299846 1.410400 1.899399 2.299850 1.410412 1.899396 -0.000001 0.000001 -0.000001 -0.000001 0.000000 -0.000000 0.560208 12.569471 -8.809949 21.591041 29.149622 -64.927198 -59.006954 -28.841696 -29.005355 -2.755776 20.006095 26.728929 15.094016 -13.012258 16.727410 -1.153508 11.258013 -8.413070 0.000006 -0.000001 0.000001 -1.291523 -7.470739 -5.110732 -0.002007 -0.823201 -18.506065 -0.000001 0.000000 0.000000 1.303963 3.063946 -24.663256 0.471295 -1.179150 -19.128356 -0.000001 -0.000000 -0.000003 1.653457 5.671078 -34.035813 -0.906822 -0.999025 -25.024299 -0.000001 0.000001 -0.000000 1.279393 4.888730 -42.390937 -1.078336 -0.681001 -22.872762 -0.000003 -0.000003 0.000000 0.000002 0.000001 0.000002 0.000002 0.000001 0.000002 0.000001 0.000002 0.000002 0.000000 -0.000001 -0.000000 0.000000 -0.000002 -0.000000 0.000000 -0.000001 -0.000000 0.000001 -0.000001 -0.000000 1.220474 16.569692 3.011178 -64.817867 30.100056 76.400891 53.142953 8.465455 3.719453 2.148537 35.073394 -9.633443 55.149563 18.649543 -29.698287 -0.442586 -14.180519 7.313132 0.000001 -0.000002 -0.000001 5.673387 7.585029 36.844171 1.050478 3.824483 68.900216 -0.000001 0.000000 0.000001 -0.125689 1.886101 45.000770 -1.169017 3.204644 68.417636 0.000002 0.000000 0.000000 -5.312005 1.216659 58.508821 -0.745207 1.667608 48.011275 0.000002 0.000001 0.000000 -7.756836 -9.376461 47.263994 -0.526027 1.541569 45.600525 0.000003 0.000002 -0.000000 0.000000 0.000000 -0.000000 0.000001 0.000000 -0.000000 0.000001 0.000000 -0.000000 -0.000004 0.000000 0.000002 -0.000004 0.000001 0.000002 -0.000004 0.000000 0.000002 -0.000004 0.000001 0.000001 0.000001 0.000000 -0.000000 0.000001 0.000000 -0.000000 0.000001 0.000000 -0.000000 0.000001 0.000000 -0.000000 0.000001 0.000000 -0.000000 0.000001 0.000000 -0.000000 0.000001 0.000000 -0.000000 -0.000000 -0.000000 -0.000000 -0.000000 0.000002 -0.000001 
15.320271 81.885277 65.965881 -197.445975 51.932592 187.393521 0.000000 -0.000004 0.000000 -58.914691 -10.795863 20.076885 32.873974 -39.866363 4.202858 3.786233 -0.651592 -24.384503 -0.000000 -0.000000 -0.000000 -0.000000 0.000001 0.000002 -27.651883 -24.844606 -28.845422 46.999358 -2.492268 7.358455 -21.885280 -6.601289 20.716087 0.000000 0.000001 0.000000 0.000002 -0.000001 -0.000000 12.423055 3.472958 -3.156880 11.349575 10.896045 -14.949131 0.503252 14.434860 -10.712579 2.354687 1.423623 1.926572 2.354730 1.423621 1.926561 -0.000001 -0.000001 0.000000 2.354868 1.423628 1.926564 2.354500 1.423616 1.926575 0.000003 0.000000 -0.000001 -0.000001 -0.000001 0.000000 0.690149 12.814776 -9.700469 17.839872 28.067226 -61.512001 -57.352183 -29.386885 -29.329529 -2.509858 19.581729 26.010329 15.852543 -12.226266 15.981150 -1.153666 11.258082 -8.411979 0.000005 0.000000 0.000001 -1.364778 -7.206530 -8.793114 0.033241 -0.710940 -15.958045 0.000003 -0.000001 0.000004 1.253979 2.954635 -26.823599 0.431629 -1.287416 -21.434327 -0.000002 -0.000000 -0.000001 1.578075 5.553397 -36.190560 -0.962026 -1.110703 -27.329894 -0.000002 -0.000001 0.000001 1.200979 4.799973 -44.547023 -1.129967 -0.799935 -25.177734 -0.000001 -0.000002 0.000000 -0.000000 0.000002 -0.000000 -0.000000 0.000002 -0.000000 -0.000001 0.000003 0.000000 0.000001 0.000003 0.000002 0.000001 0.000002 0.000000 0.000001 0.000003 0.000002 -0.000001 -0.000000 0.000001 1.222237 16.439876 2.931223 -60.208281 28.479549 76.380797 52.535435 10.352244 -2.661517 -0.725306 34.527791 -2.792963 55.149560 18.649541 -29.698291 -0.442584 -14.180521 7.313142 0.000001 -0.000001 0.000001 5.673392 7.585024 36.844168 1.050476 3.824482 68.900216 0.000002 -0.000000 -0.000001 -0.125687 1.886098 45.000766 -1.169019 3.204647 68.417636 0.000001 0.000000 0.000000 -5.312005 1.216658 58.508821 -0.745211 1.667609 48.011278 0.000004 0.000002 -0.000000 -7.756837 -9.376468 47.263994 -0.526029 1.541571 45.600532 0.000004 0.000003 0.000003 0.000002 0.000000 0.000001 -0.000001 -0.000000 -0.000001 0.000002 -0.000000 0.000001 0.000002 0.000001 -0.000001 0.000002 0.000002 -0.000001 0.000002 0.000001 -0.000001 0.000002 0.000002 -0.000002 -0.000001 0.000001 -0.000000 -0.000001 0.000001 -0.000000 -0.000001 0.000001 -0.000000 -0.000001 0.000001 -0.000000 -0.000001 0.000001 -0.000000 -0.000001 0.000001 -0.000000 -0.000001 0.000001 -0.000000 -0.000001 0.000002 -0.000001 0.000000 -0.000004 0.000000 
15.175376 82.016830 65.761932 -198.291402 54.503523 188.497607 -0.000000 0.000001 -0.000000 -58.546879 -10.945750 21.232630 35.509716 -38.195074 4.216452 2.041588 -0.134407 -23.304711 0.000000 -0.000001 -0.000000 -0.000000 -0.000000 -0.000000 -29.336667 -23.750926 -29.529346 46.738786 -0.632660 7.477907 -20.896416 -6.159373 19.706487 -0.000000 -0.000001 -0.000000 0.000001 0.000001 0.000002 12.216409 3.350145 -3.160226 10.965557 10.728930 -14.870420 0.112396 14.271531 -10.661714 2.392754 1.442735 1.946076 2.392748 1.442735 1.946082 0.000002 0.000001 -0.000001 2.392759 1.442727 1.946078 2.392833 1.442733 1.946077 -0.000001 0.000000 0.000000 0.000002 0.000001 -0.000001 0.813247 12.488584 -10.557388 13.645990 26.593007 -57.689164 -53.947074 -30.883810 -28.900853 -2.216755 18.855328 25.368731 16.555682 -11.495700 15.265835 -1.153776 11.258142 -8.410826 0.000002 -0.000000 -0.000003 -1.394214 -6.959258 -12.216304 0.061284 -0.605635 -13.575345 0.000003 0.000002 0.000002 1.204413 2.854560 -28.821698 0.391328 -1.386596 -23.578619 0.000001 0.000000 0.000001 1.504880 5.445172 -38.183380 -1.018056 -1.212289 -29.473991 0.000006 -0.000001 -0.000000 1.125880 4.720286 -46.541172 -1.183257 -0.908407 -27.321247 -0.000002 -0.000000 0.000003 0.000001 0.000002 -0.000003 0.000001 0.000002 -0.000003 0.000000 0.000003 -0.000003 0.000001 0.000001 -0.000000 0.000001 0.000000 0.000000 0.000001 0.000001 -0.000000 0.000000 0.000000 -0.000000 1.273178 15.702841 2.792933 -54.445644 25.923085 69.909862 52.735928 24.416304 -3.568420 -2.348688 28.229723 0.359080 55.149563 18.649543 -29.698287 -0.442587 -14.180520 7.313139 -0.000002 -0.000000 -0.000006 5.673389 7.585024 36.844175 1.050479 3.824488 68.900223 -0.000000 -0.000002 -0.000001 -0.125684 1.886098 45.000773 -1.169017 3.204648 68.417636 0.000001 0.000001 0.000000 -5.312006 1.216664 58.508821 -0.745209 1.667612 48.011275 -0.000003 -0.000001 -0.000001 -7.756838 -9.376463 47.263987 -0.526027 1.541573 45.600525 -0.000001 0.000003 -0.000001 0.000002 -0.000000 0.000001 0.000002 0.000000 -0.000002 0.000002 -0.000000 0.000001 0.000000 0.000001 -0.000001 0.000000 0.000002 -0.000002 0.000000 0.000001 -0.000001 0.000000 0.000002 -0.000002 -0.000000 0.000001 -0.000000 -0.000000 0.000001 -0.000000 -0.000000 0.000001 -0.000000 -0.000000 0.000001 -0.000000 -0.000000 0.000001 -0.000000 -0.000000 0.000001 -0.000000 -0.000000 0.000001 -0.000000 0.000003 0.000002 -0.000003 -0.000000 0.000001 -0.000000 
